<svg width="17" height="20" viewBox="0 0 17 20" fill="none" xmlns="http://www.w3.org/2000/svg">
<path d="M16.45 15.9611L15.0282 7.52612C14.847 6.45343 13.9272 5.67623 12.8393 5.67623H12.223V3.97408C12.223 1.78215 10.4409 0 8.2489 0C6.05697 0 4.27482 1.78209 4.27482 3.97408V5.67623H3.65853C2.57065 5.67623 1.65076 6.45343 1.46962 7.52612L0.047784 15.9611C-0.120205 16.969 0.159102 17.9921 0.816901 18.7725C1.4747 19.5527 2.44112 20 3.46223 20H13.0345C14.0556 20 15.019 19.5517 15.6798 18.7725C16.3386 17.9922 16.618 16.9661 16.45 15.9611ZM5.31015 3.97121C5.31015 2.35204 6.62875 1.03339 8.24797 1.03339C9.86719 1.03339 11.1858 2.35199 11.1858 3.97121V5.67335H5.31015V3.97121Z" fill="#363636"/>
</svg>
