<svg width="130" height="130" viewBox="0 0 130 130" fill="none" xmlns="http://www.w3.org/2000/svg">
<circle cx="65" cy="65" r="65" fill="#363636"/>
<path d="M38.12 71.968V73H23V71.968H26.072C25.304 71.568 24.6 71.072 23.96 70.48L25.736 68.344C27.432 69.816 29.192 70.552 31.016 70.552C31.928 70.552 32.648 70.36 33.176 69.976C33.72 69.576 33.992 69.056 33.992 68.416C33.992 67.76 33.736 67.256 33.224 66.904C32.728 66.536 31.864 66.208 30.632 65.92C29.4 65.616 28.464 65.344 27.824 65.104C27.184 64.848 26.616 64.52 26.12 64.12C25.128 63.368 24.632 62.216 24.632 60.664C24.632 59.112 25.192 57.92 26.312 57.088C27.448 56.24 28.848 55.816 30.512 55.816C31.584 55.816 32.648 55.992 33.704 56.344C34.76 56.696 35.672 57.192 36.44 57.832L34.928 59.968C34.432 59.52 33.76 59.152 32.912 58.864C32.064 58.576 31.224 58.432 30.392 58.432C29.576 58.432 28.904 58.6 28.376 58.936C27.848 59.272 27.584 59.784 27.584 60.472C27.584 61.144 27.848 61.664 28.376 62.032C28.904 62.384 30.024 62.768 31.736 63.184C33.464 63.6 34.76 64.184 35.624 64.936C36.504 65.688 36.944 66.744 36.944 68.104C36.944 69.752 36.336 71.04 35.12 71.968H38.12ZM52.6132 71.968V73H38.1172V71.968H43.9492V58.816H38.8612V56.224H51.8692V58.816H46.7812V71.968H52.6132ZM72.3163 71.968V73H52.1562V71.968H57.6523C56.3403 71.216 55.3003 70.184 54.5323 68.872C53.7803 67.56 53.4043 66.096 53.4043 64.48C53.4043 62.016 54.2523 59.96 55.9483 58.312C57.6443 56.648 59.7403 55.816 62.2363 55.816C64.7323 55.816 66.8283 56.648 68.5243 58.312C70.2203 59.96 71.0683 62.016 71.0683 64.48C71.0683 66.08 70.6843 67.544 69.9163 68.872C69.1643 70.2 68.1323 71.232 66.8203 71.968H72.3163ZM66.4363 60.184C65.3003 59 63.9003 58.408 62.2363 58.408C60.5723 58.408 59.1643 59 58.0123 60.184C56.8763 61.368 56.3083 62.808 56.3083 64.504C56.3083 66.184 56.8763 67.616 58.0123 68.8C59.1643 69.984 60.5723 70.576 62.2363 70.576C63.9003 70.576 65.3003 69.984 66.4363 68.8C67.5883 67.616 68.1643 66.184 68.1643 64.504C68.1643 62.808 67.5883 61.368 66.4363 60.184ZM90.3845 71.968V73H85.2005L81.1925 67.36H77.4725V73H72.3125V71.968H74.6405V56.224H80.8805C83.4405 56.224 85.2725 56.656 86.3765 57.52C87.4805 58.384 88.0325 59.768 88.0325 61.672C88.0325 64.44 86.8245 66.184 84.4085 66.904L88.0565 71.968H90.3845ZM81.0005 64.792C82.6005 64.792 83.6885 64.544 84.2645 64.048C84.8405 63.552 85.1285 62.76 85.1285 61.672C85.1285 60.568 84.8325 59.816 84.2405 59.416C83.6485 59 82.5925 58.792 81.0725 58.792H77.4725V64.792H81.0005ZM92.1014 71.968V56.224H103.885V58.888H94.9334V63.328H102.973V65.848H94.9334V70.336H104.173V71.968H106.501V73H89.7734V71.968H92.1014Z" fill="white"/>
</svg>
