<svg width="11" height="20" viewBox="0 0 11 20" fill="none" xmlns="http://www.w3.org/2000/svg">
<path fill-rule="evenodd" clip-rule="evenodd" d="M9.60411 0H1.35255C0.608579 0 0 0.608579 0 1.35255V18.6475C0 19.3914 0.608579 20 1.35255 20H9.60411C10.3481 20 10.9569 19.3914 10.9569 18.6475V1.35255C10.9567 0.608579 10.3481 0 9.60411 0ZM5.47833 18.8369C5.01318 18.8369 4.63405 18.4576 4.63405 17.9926C4.63405 17.5277 5.0134 17.1483 5.47833 17.1483C5.94325 17.1483 6.32261 17.5277 6.32261 17.9926C6.32261 18.4576 5.94348 18.8369 5.47833 18.8369ZM10.1314 16.2853H0.82529V1.76095H10.1314V16.2853Z" fill="black"/>
</svg>
